<?xml version="1.0" encoding="UTF-8" standalone="no"?>
<!-- Created with Inkscape (http://www.inkscape.org/) -->

<svg
   width="140"
   height="195"
   id="svg2"
   version="1.1"
   inkscape:version="1.3.2 (1:1.3.2+202311252150+091e20ef0f)"
   sodipodi:docname="Seme_coppe_carte_spagnole.svg"
   xmlns:inkscape="http://www.inkscape.org/namespaces/inkscape"
   xmlns:sodipodi="http://sodipodi.sourceforge.net/DTD/sodipodi-0.dtd"
   xmlns="http://www.w3.org/2000/svg"
   xmlns:svg="http://www.w3.org/2000/svg"
   xmlns:rdf="http://www.w3.org/1999/02/22-rdf-syntax-ns#"
   xmlns:cc="http://creativecommons.org/ns#"
   xmlns:dc="http://purl.org/dc/elements/1.1/">
  <defs
     id="defs4">
    <inkscape:perspective
       sodipodi:type="inkscape:persp3d"
       inkscape:vp_x="0 : 441.28747 : 1"
       inkscape:vp_y="0 : 1000 : 0"
       inkscape:vp_z="744.09448 : 441.28747 : 1"
       inkscape:persp3d-origin="372.04724 : 265.89377 : 1"
       id="perspective10" />
    <inkscape:perspective
       id="perspective2824"
       inkscape:persp3d-origin="0.5 : -84.560282 : 1"
       inkscape:vp_z="1 : -84.393616 : 1"
       inkscape:vp_y="0 : 1000 : 0"
       inkscape:vp_x="0 : -84.393616 : 1"
       sodipodi:type="inkscape:persp3d" />
  </defs>
  <sodipodi:namedview
     id="base"
     pagecolor="#ffffff"
     bordercolor="#666666"
     borderopacity="1.0"
     inkscape:pageopacity="0.0"
     inkscape:pageshadow="2"
     inkscape:zoom="5.6"
     inkscape:cx="99.642857"
     inkscape:cy="120.89286"
     inkscape:document-units="px"
     inkscape:current-layer="layer1"
     showgrid="false"
     inkscape:window-width="3840"
     inkscape:window-height="2123"
     inkscape:window-x="0"
     inkscape:window-y="0"
     inkscape:window-maximized="1"
     inkscape:showpageshadow="2"
     inkscape:pagecheckerboard="0"
     inkscape:deskcolor="#d1d1d1" />
  <metadata
     id="metadata7">
    <rdf:RDF>
      <cc:Work
         rdf:about="">
        <dc:format>image/svg+xml</dc:format>
        <dc:type
           rdf:resource="http://purl.org/dc/dcmitype/StillImage" />
      </cc:Work>
    </rdf:RDF>
  </metadata>
  <g
     inkscape:label="Livello 1"
     inkscape:groupmode="layer"
     id="layer1"
     transform="translate(-159.69394,-549.57445)">
    <g
       id="g2830"
       transform="matrix(0.3183662,0,0,0.31735754,146.33294,496.40245)">
      <path
         style="fill:#8fd5f7"
         d="m 257.84375,171.84375 c -7.8958,-0.0531 -15.70504,5.2029 -17.03125,13.21875 -6.14007,14.0099 -22.43781,18.86175 -36.33362,21.56534 -34.7354,9.46693 -66.7869,28.91736 -90.69516,56.03818 -16.951744,17.38587 -31.996385,37.68143 -37.65872,61.64648 -7.560987,20.70576 -29.335466,35.1797 -29.65625,58.65625 0.418288,15.28805 18.35417,26.74824 32.46875,20.625 17.627853,21.86003 25.48005,49.30287 34.81369,75.31948 9.43413,20.71615 15.98178,43.6301 31.84256,60.52427 16.84216,29.90276 50.06058,45.8257 82.25,53.5625 5.11175,7.81656 -2.45074,15.84936 -7.53125,21.25 -7.34138,8.74806 -17.66792,16.51434 -19.375,28.5 -19.60302,5.29774 -28.27738,25.46139 -38.78125,40.875 -3.79826,4.92767 -7.37613,13.05379 -14.71875,12.125 -6.60533,0.69492 -8.68399,7.9371 -8.53786,13.54976 -0.1694,7.45078 -3.57352,17.40083 -12.43089,17.41899 -4.74348,-0.61509 -9.86896,0.29782 -12.1875,4.96875 -8.10938,12.14004 -6.91443,29.03224 -0.71875,41.84375 1.94855,4.21464 6.41807,6.38217 10.90602,5.11502 67.83852,1.21549 135.7022,-0.10537 203.53141,1.78111 18.99048,0.48443 38.20439,-0.9195 57.06257,0.88512 9.83992,2.71093 23.2629,-0.8918 25.75,-12.09375 2.63158,-7.3176 -0.56316,-15.29946 0.28125,-22.46875 2.03746,-4.21263 0.80318,-11.06373 -4.75,-11.3125 -8.32215,-2.01122 -20.33776,-4.45531 -21.5,-14.84375 0.81662,-15.02756 -14.18798,-23.29924 -22.5625,-33.625 -6.89542,-7.44622 -11.32033,-18.31796 -8.71875,-28.15625 -24.09453,-7.59231 -38.74469,-29.76102 -57.0625,-45.6875 -7.51709,-7.48829 -5.67299,-21.15701 3.1875,-26.71875 7.53866,-6.40604 17.82062,-7.97985 27.28125,-8.5625 26.35783,-11.09164 47.20074,-32.75714 63.25347,-55.91273 10.38636,-19.72284 14.70315,-42.13464 25.84391,-61.51282 6.32138,-16.26901 8.33985,-37.22498 24.71512,-47.1057 6.68931,-3.9806 14.75478,-1.3852 21.875,-2.40625 15.8993,-4.26111 23.10201,-25.65342 13,-38.65625 -5.37248,-7.3146 -14.80541,-10.51785 -19,-18.96875 -11.28079,-17.62131 -12.43229,-40.26122 -26.77345,-56.1133 -13.50117,-20.95993 -29.00709,-41.30812 -50.32763,-54.7895 -19.17235,-15.75917 -42.30732,-27.90452 -67.08642,-30.62845 -9.73441,3.79982 -22.03739,-1.2112 -24.88487,-11.65931 -3.72761,-8.66385 -6.72357,-19.4922 -16.17763,-23.46569 -3.49715,-3.54136 -8.67032,-5.0318 -13.5625,-4.78125 z m 0.9375,4.8125 c 3.63224,-0.027 11.20063,2.15628 8.09375,7.03125 -3.12644,5.39705 -13.7208,4.57553 -13.125,-2.75 0.28742,-2.45904 2.60992,-4.26076 5.03125,-4.28125 z m -17.21875,15.8125 c 8.01312,-1.26966 6.66337,13.91372 -0.875,11.53125 -5.35001,-2.04142 -5.58287,-11.0218 0.875,-11.53125 z M 277.5,205.0625 c 8.34124,0.53256 7.5596,16.3423 -0.75,15.25 -5.31467,-2.58977 -4.94024,-11.90416 -0.5625,-14.9375 0.4295,-0.11805 0.85525,-0.34393 1.3125,-0.3125 z m -65,22.21875 c 4.57727,-0.0888 7.81698,3.60691 11.28125,6.09375 -2.00246,6.45622 -12.37899,9.42986 -15.375,2.25 -1.88086,-3.36884 0.062,-8.07979 4.09375,-8.34375 z m -63.0625,10.53125 c 3.88662,-0.19272 9.39983,5.05522 4.90625,8.15625 -3.25612,3.8525 -10.66474,1.41016 -9.84375,-4 0.43605,-2.32868 2.53535,-4.18938 4.9375,-4.15625 z m -45.25,44.5625 c 6.98695,0.31132 7.68196,12.04409 0.625,12.96875 -5.043662,2.72375 -10.871849,-4.14016 -6.875,-8.59375 1.243269,-2.29665 3.50351,-4.33557 6.25,-4.375 z m 228.25,1.28125 c 12.31479,2.39602 14.65455,19.01687 26.875,21.59375 4.40632,0.32287 5.8291,-5.61155 10.03125,-6.6875 7.64878,-4.69975 17.47302,-1.79229 22.90625,4.78125 8.66986,8.67161 12.84434,20.77085 15.4375,32.59375 -20.99225,-9.30538 -43.07825,-15.71819 -65.4375,-20.25 -24.51381,-7.69853 -50.74679,-5.97987 -75.9375,-10.03125 0.49811,-10.18947 11.02769,-15.93863 20.21875,-16.03125 12.61014,-1.01489 25.78615,2.40838 38,-0.3125 1.55295,-2.95192 4.3129,-5.89664 7.90625,-5.65625 z M 109.03125,306.25 c 7.8177,0.29336 6.01381,14.43908 -1.6875,12.25 -5.01521,-1.94473 -4.4121,-12.25336 1.6875,-12.25 z m -0.4375,61.53125 c 5.43183,-0.68123 7.36645,8.68165 1.34375,8.96875 -4.64262,1.2694 -9.72005,-5.96743 -4.15625,-8.25 0.89783,-0.35469 1.84355,-0.64167 2.8125,-0.71875 z M 57.75,377.125 c 6.383491,0.7217 6.922097,8.46313 7.90625,13.375 -3.99904,4.79756 -14.280988,4.35053 -14.53125,-3.0625 -0.473458,-4.27359 1.567764,-10.232 6.625,-10.3125 z M 279.5,527.34375 c 6.12792,0.0191 5.98741,9.02576 0.6875,10.40625 -7.93743,2.92714 -8.14945,-9.99717 -0.6875,-10.40625 z m -20.59375,10.5625 c 10.86114,0.64072 21.8077,7.969 25.21875,18.375 0.53346,5.49691 -6.67299,7.08352 -10.5625,4.78125 3.17203,5.64571 5.11561,15.39964 -2.1875,18.71875 -1.22573,7.34965 -7.722,11.34775 -13.78125,14.3125 -4.04434,1.96581 -1.74517,6.09488 -0.625,9.125 0.29929,2.25615 4.45563,1.15833 5.75,3.4375 2.20217,1.77288 3.84201,4.10461 6.0625,5.90625 -4.04946,5.23469 -14.86448,6.12681 -16.46875,-1.625 -0.48241,-2.25941 -4.84967,-1.54788 -6.40625,-3.8125 -13.65815,-10.76006 -12.7581,-30.91313 -7.03142,-45.68912 3.44736,-8.17388 7.59294,-17.04953 14.96892,-22.27963 1.57904,-0.7675 3.32152,-1.13748 5.0625,-1.25 z M 232,538.59375 c 6.68688,0.48097 7.12721,8.90581 4.0625,13.375 -2.48992,4.75569 -10.16588,2.24165 -9.6875,-3 -0.91304,-4.07418 0.2961,-10.52568 5.625,-10.375 z m 55.5625,25.34375 c 6.54937,4.39477 4.99904,13.62021 5.4375,20.4375 -0.12576,4.63372 -2.896,9.9222 -7.5625,10.59375 -0.23353,7.85517 -6.99329,17.01797 -15.625,14.5625 -5.62465,-3.21148 -1.27056,-10.71345 2.25,-13.8125 1.82278,-2.85445 5.66698,-4.86645 7.84375,-6.21875 -0.77261,-6.98547 0.50747,-14.14741 1.15625,-21.09375 0.49447,-2.91768 3.54062,-5.5198 6.5,-4.46875 z m 19.3125,3 c 4.33333,-0.2627 10.29757,6.15107 5.4375,9.40625 -4.09846,3.23916 -13.20005,2.23284 -11.8125,-4.5625 0.68015,-2.82792 3.50602,-4.85071 6.375,-4.84375 z m -24.9375,48.15625 c 3.42033,-0.25086 10.18541,2.42089 6.75,6.625 -3.07904,2.94961 -9.8227,6.94352 -12.75,1.5625 -1.84111,-3.97772 1.97971,-8.21495 6,-8.1875 z m 72.65625,89.0625 c 9.35483,-0.67405 21.6129,3.84921 22.125,14.625 0.64271,4.37305 0.33851,12.01613 -5.90625,11.3125 -26.12842,1.47876 -51.89126,-4.30969 -78.03076,-3.90623 -13.55781,-0.36844 -27.13551,-1.10405 -40.50049,-3.46877 -1.72283,-10.7357 8.97808,-19.5443 19.21875,-18.1875 13.97909,-0.31564 27.95734,4.655 41.78125,1.3125 13.75389,2.66949 27.51349,-2.05857 41.3125,-1.6875 z"
         id="path2838"
         sodipodi:nodetypes="cccccccccccccccccccccccccccccccccccccccccccccccccccccccccccccccccccccccccccccccccccccccccccccccccccccccccccccccccccccccccccccccccc" />
      <path
         style="fill:#2d1609"
         d="m 373.34375,211.875 c -1.42622,0.0325 -2.87402,0.17514 -4.375,0.4375 -14.16702,3.26238 -18.24399,22.96678 -27.28125,31.4375 -23.62526,-2.00655 -43.96923,12.30418 -64.40625,21.5625 -34.47239,19.33405 -61.09024,50.69956 -81.4375,84.1875 -7.99593,24.47964 -21.05819,46.15402 -33.5,68.3125 -8.53027,29.06767 25.68994,28.78503 37.96875,39.4375 18.15097,21.52239 17.74054,50.91788 31.65625,73.8125 6.54873,23.03399 19.0712,45.23858 36.3125,61.9375 17.96851,26.83335 49.65518,38.14193 79,47.8125 -17.73163,13.62885 -24.49007,36.54325 -40.90625,50.625 -24.04542,5.16676 -18.19604,38.47588 -39.75,45.5625 -25.66452,-3.93942 -3.58984,32.0413 -23.78125,29.96875 -25.68093,-0.8588 -23.11326,45.50863 -9.46875,55.84375 68.61469,3.38735 137.46543,1.16475 206.15625,3.0625 l 3.1875,0.21875 c 28.19287,-0.65006 57.15771,2.09667 84.84375,-2.5625 5.78816,-14.00298 2.48815,-30.39657 3.90625,-45.46875 -17.52654,-4.46604 -29.64354,-9.01936 -28.4375,-31.5 -21.54041,-7.06558 -29.61986,-30.78801 -31.59375,-48.90625 -24.63071,-6.62849 -38.81116,-27.61803 -56.375,-44.0625 -12.48812,-18.38434 12.93738,-29.87747 28.90625,-30.09375 23.33754,-8.63977 41.70469,-28.49237 57.125,-46.09375 9.89205,-1.15191 12.88414,-21.46122 18.46875,-34.96875 11.70063,-23.20479 19.20646,-48.50111 30.46875,-72.40625 6.23299,-25.59387 27.08528,-7.06503 40.9375,-20.0625 27.19195,-22.54638 -9.95112,-40.60606 -19.9375,-59.3125 0.59086,-4.29344 -3.98574,-17.71084 -8.5,-25.53125 -3.28386,-9.61711 -8.12394,-16.92065 -12.875,-24.375 -5.47014,-9.60918 -7.5591,-14.00601 -15.03125,-20.9375 -14.08061,-18.91716 -31.95366,-35.55798 -52.84375,-46.6875 -18.77217,-15.90929 -44.25574,-23.98769 -69.4375,-21.125 -4.5996,-16.35138 -17.60669,-40.61239 -39,-40.125 z M 375,222.65625 c 21.8509,-0.4938 34.96929,42.06977 11.40625,52.25 -9.07764,4.52829 -23.04347,1.84211 -27.5,-8.09375 -9.53945,-12.68466 -2.1626,-32.73684 9.0625,-42.53125 2.41635,-1.05616 4.77081,-1.57392 7.03125,-1.625 z m -44.65625,30 c 16.80866,-0.37574 21.39129,35.657 -4.71875,24.65625 -19.57775,-4.93152 -52.17172,25.82226 -35.1875,47.65625 -7.54254,31.31232 -31.64352,-18.49421 -39.875,4.59375 C 231.8692,347.97956 227.1949,378.87523 200,386.5 c -20.96559,10.56413 1.20692,-33.64132 7.375,-37.40625 7.12178,-23.99949 29.0461,-40.82941 46.53125,-58.03125 20.1261,-13.58148 39.03889,-30.25572 64.5625,-32.71875 4.37738,-3.96076 8.38641,-5.60952 11.875,-5.6875 z M 425.5,258.9375 c 3.85822,-0.19936 7.86804,0.92186 11.6875,3.875 22.93211,5.14347 43.94013,16.27965 61.9375,30.53125 15.44163,13.67785 28.91605,28.38768 40.9375,44.71875 8.06717,15.06219 4.17898,7.82693 14.1875,30.03125 13.27423,17.96018 -5.95705,27.22648 -17.46875,11.03125 -7.774,-21.49652 -20.21047,-37.87753 -37.28125,-54.28125 -12.64572,11.8706 -39.25179,18.431 -29.9375,-10.0625 -2.80584,-19.27985 -33.19264,-49.1636 -49.4375,-25.9375 -28.14452,2.07538 -13.21458,-28.94569 5.375,-29.90625 z m -72.84375,19.21875 c 7.22664,0.18192 15.6229,6.46458 23.46875,10.1875 18.61398,-13.98839 23.86098,4.11861 38.90625,9.71875 17.2736,-12.01174 41.86522,-6.44558 45.5625,17.375 -11.68498,15.6502 1.78668,35.48406 20.8125,33.84375 18.28597,-27.11403 37.21873,7.91912 41,23.71875 -2.10868,0.0646 -5.42177,3.06077 -7.8125,1.40625 -23.13013,-12.47234 -51.43512,-13.50149 -77.0625,-20.15625 -37.8084,-4.3019 -76.20097,-2.16096 -114.21875,-1.5 -28.53406,0.92638 -55.56308,12.6586 -83.34375,16.25 -9.76268,-13.73507 18.28922,-51.00448 34,-28.1875 25.82585,3.41927 24.69469,-24.90728 24.5,-43.75 12.50731,-17.83047 25.20895,-12.52873 41.53125,-7.9375 3.30725,-8.34974 7.7117,-11.09322 12.65625,-10.96875 z m 14.5625,78.875 c 14.56936,-0.0202 29.15243,0.5715 43.59375,1.21875 21.08626,2.12158 47.40552,2.76807 63.40625,16.25 29.19548,1.3983 54.63244,14.00906 80.6875,24.75 18.70683,6.52646 54.54691,28.37858 26.34375,47.4375 l -1.6875,1.8125 c -25.49268,-3.53243 -46.85256,-23.11642 -71.46875,-31.125 -27.68951,-8.37066 -55.13194,-19.92136 -84.46875,-21 -34.03244,-9.34983 -69.30155,-3.56727 -103.78125,-0.15625 -27.3195,0.46502 -52.03913,12.51263 -78.15625,18.53125 -23.26045,2.78056 -44.09472,28.3128 -66.53125,21.125 -22.47942,-24.3103 22.08631,-41.70414 41.40625,-47.40625 24.39339,-12.45997 52.00709,-17.85514 78.65625,-23.46875 23.478,-6.17336 47.71773,-7.93504 72,-7.96875 z m 2.25,47.96875 c 8.00963,-0.0703 16.02353,0.0681 24.03125,0.375 26.88856,2.20398 55.38709,3.67444 80.21875,13.1875 21.12175,5.90728 42.41945,22.33075 61.59375,22.28125 30.02901,6.08103 -10.66735,44.08108 -10.4375,18.46875 2.33541,-25.55203 -5.49571,-1.26405 -8.71875,8.71875 -18.88837,13.25034 2.47006,-15.92388 -2.3125,-23.9375 -5.50306,8.60523 -16.50672,26.17759 -19.89779,40.87923 -12.08871,19.86576 -21.91162,42.7601 -27.82096,65.80827 -20.43212,13.23216 5.24169,-21.09011 5.90625,-30.875 9.65501,-22.86799 19.42877,-45.03727 27.21875,-67.875 -1.33572,-21.95781 -5.47407,15.1269 -11.65625,12.71875 -10.45597,20.55367 -14.85655,44.92079 -28.6875,62.3125 1.77747,20.5056 -27.29261,25.55069 -43.78125,28.34375 -6.8983,-20.9555 -25.9273,-43.77319 -52.375,-33.6875 -21.12071,3.60277 -9.08963,50.09959 -29,35.46875 -27.06129,-6.23902 -41.42258,19.97256 -42.03125,43.375 -8.99778,4.58198 -25.70173,-18.74306 -26.96875,-29.96875 -23.08393,-12.38464 -13.43328,-42.26986 -9.625,-62.6875 13.16452,-13.53073 4.44203,-32.74266 -15.78125,-29.0625 -21.55686,-0.96835 -49.29631,-35.76648 -15.75,-43.53125 24.59695,-8.01393 48.42919,-20.17501 74.34375,-23.125 23.52308,-4.91114 47.50235,-6.97658 71.53125,-7.1875 z m 7.9375,20.3125 c -9.64454,0.098 -20.04699,9.28362 -23.40625,18.71875 -27.40667,20.00272 6.15216,36.09743 15.53125,55.03125 9.20016,6.43989 20.43185,-14.88723 26.28125,-20.84375 23.97348,-10.86701 6.16678,-29.0995 -3.53125,-41.375 -3.57352,-8.37874 -9.08828,-11.59008 -14.875,-11.53125 z m -1.8125,11.71875 c 3.36121,0.0356 6.65174,2.11919 9.5,7.28125 26.09648,14.27578 4.40471,28.43128 -7.5625,42.40625 -7.523,5.81048 -21.08239,-15.90328 -25.1875,-23.03125 2.34632,-8.4901 13.16637,-26.76308 23.25,-26.65625 z m 150.875,38.75 c 11.43624,-0.55305 -1.2283,24.50273 -2.75,34.28125 -4.64918,-3.46837 -33.59894,-29.17981 -7.8125,-30.28125 4.76456,-2.6856 8.18894,-3.88522 10.5625,-4 z m -297.8125,7.5 c 1.94737,-0.14218 5.00899,1.41708 9.53125,5.4375 27.46343,-3.67157 5.23326,19.76018 6.28125,33.75 -4.05352,12.49275 -26.32831,-38.41972 -15.8125,-39.1875 z m 266.46875,13.0625 c 23.12722,17.44028 -14.65243,45.24113 -20,65.375 -2.06363,7.58283 -10.10477,1.76831 -6.8125,-2.78125 15.61109,-17.04265 11.86675,-43.28339 26.8125,-62.59375 z m 16.46875,22.53125 c 2.9118,-0.16573 4.39902,4.1761 2.0625,15.90625 -8.68839,21.46129 -22.49202,39.62149 -37.59375,57.59375 l -1.46875,2.0625 -1.40625,0.875 c -8.89847,-19.70613 16.86673,-41.53238 25.40625,-59.625 3.17107,-8.94865 9.25626,-16.59942 13,-16.8125 z m -136,8.25 c 23.30446,0.39495 30.92988,34.34726 22.5625,53.75 -23.01892,1.47495 -8.44961,-25.39552 -16.40625,-35.3125 -20.00943,2.36983 2.50426,37.16177 -22.5625,34 -13.52235,-13.11505 -1.45601,-37.65585 7.09375,-50.96875 3.33361,-1.05276 6.45055,-1.51725 9.3125,-1.46875 z m 63.0625,31 c 3.37253,-0.17192 6.72105,0.50117 9.90625,2.25 23.30946,14.84281 8.74325,49.39704 -13.96875,56.90625 -3.86158,1.2246 -18.18391,7.15177 -17.9375,-0.71875 14.92431,-6.38919 27.13319,-20.35285 35.03125,-36 -1.81254,-10.3528 -23.01732,13.47353 -28.46875,19.4375 -32.29949,1.53789 -8.1702,-40.67159 15.4375,-41.875 z m -114.21875,7.8125 c 10.98809,-0.10524 23.40457,10.82512 27.96875,20.125 -0.77677,26.01948 -19.3324,10.8542 -30.4375,-0.65625 -18.69749,8.47933 33.75566,22.47632 23.15625,40.21875 l -2.375,1.59375 -1.65625,-0.90625 c -30.02626,3.65129 -52.82657,-33.14231 -28.34375,-54.40625 3.30524,-4.18132 7.38781,-5.92757 11.6875,-5.96875 z m 52.03125,17.96875 c 12.29048,-0.22833 26.52546,11.07557 31.40625,24.46875 4.56418,20.49206 -6.30252,41.78087 -25.4375,47.375 -9.67159,9.07566 -19.25453,-7.8083 -25.96875,-13.28125 -6.50383,-10.29454 -1.78196,-27.65793 1.125,-38.875 2.97403,-13.97228 10.46572,-19.53127 18.875,-19.6875 z M 397.25,609.1875 c -2.54897,0.47298 -7.36924,9.06901 -12.125,14.46875 6.25485,16.63766 -27.08893,8.60517 -10.375,23.40625 11.69789,9.87269 26.38452,-16.55528 24.15625,-27.5 0.61001,-8.02014 -0.12687,-10.65879 -1.65625,-10.375 z m -48.03125,40.375 c 17.16443,7.12319 -6.69244,24.14575 -14.03125,32.09375 -19.50786,11.39316 6.37229,18.3851 5.9375,4.03125 11.7496,-19.88341 27.41728,-22.8007 47.4375,-22.8125 27.0015,-17.97573 44.62246,20.34432 62.09375,34.5625 21.6078,17.06714 -8.14618,16.68978 -21.71875,12.1875 -22.94827,-24.08952 -23.49742,17.5506 -43.3125,22.96875 -9.57467,3.69995 -21.59507,-3.38452 -28.21875,-10.03125 0.8562,-29.59138 -27.44197,-13.54196 -45.125,-17.375 3.83537,-16.34255 26.36734,-37.13666 36.9375,-55.625 z m 53.25,16.4375 c -11.07072,8.48606 22.65852,23.38997 30.25,32.28125 l 4.6875,2.78125 C 433.3849,690.26414 415.42493,672.32843 402.46875,666 Z m -22.6875,11.40625 c -5.36188,-0.1868 -2.97996,31.67354 -0.84375,39.6875 10.1436,-0.19769 4.01468,-24.32021 6.59375,-32.375 -2.50866,-5.13959 -4.38325,-7.26489 -5.75,-7.3125 z m -71.59375,35.75 c 6.68853,0.0849 13.58044,2.02062 18.59375,5.9375 14.73831,-14.76533 22.93183,4.49533 27.8125,17.1875 8.11722,10.57582 -32.38918,-4.70054 -42.1875,3.1875 -7.11546,5.55028 -15.05435,-1.96173 -22.71875,-1.625 -9.88646,-16.13189 3.78523,-24.87427 18.5,-24.6875 z m 109.375,1.59375 c 2.17306,-0.003 4.6529,1.14726 7.28125,3.9375 8.05523,2.75097 18.22547,0.80971 27.09375,1.75 13.51207,-3.1951 23.63426,6.35419 25.5,19.21875 -16.60865,3.82979 -34.99202,0.94617 -52.09375,0.0937 -22.93932,8.72454 -19.51576,-24.98165 -7.78125,-25 z m -43.40625,31.5 c 19.70372,-0.33445 32.06738,7.69369 58.375,2.75 24.53052,3.50021 67.83704,-13.17361 58.0625,22.78125 -22.08598,3.19839 -46.6422,-3.90049 -68.3125,0.65625 -9.23256,-0.9499 -13.21804,-3.06589 -21.26519,-2.23481 C 356.49074,769.37762 313.5331,768.3671 269,768.3125 c -10.58092,2.68389 -13.02695,-21.1301 -0.75,-21.1875 32.33807,2.18839 65.19538,5.13408 97.40625,0.21875 2.84331,-0.70455 5.68518,-1.04597 8.5,-1.09375 z m -60.59375,29.65625 c 58.21291,2.9643 116.45363,6.67113 174.8125,5.9375 22.05057,-6.54611 36.35103,9.33668 24.59375,29.15625 -5.78926,1.88143 -11.99757,1.07801 -17.96875,1.46875 -82.70697,-0.47613 -165.61928,2.91893 -248.15625,-3.09375 -15.35491,-3.01844 -13.04671,-39.7429 6.59375,-32.0625 20.35122,0.80905 40.13457,1.18871 60.125,-1.40625 z"
         transform="translate(-117.1777,-43.436559)"
         id="path2832"
         sodipodi:nodetypes="ccccccccccccccccccccccccccccccccccccccccccccccccccccccccccccccccccccccccccccccccccccccccccccccccccccccccccccccccccccccccccccccccccccccccccccccccccccccccccccccccccccccccccccccccccccccccccccccccccccccccccccccccccccccccc" />
    </g>
    <path
       style="opacity:0.99;fill:#ea4612;fill-opacity:1;stroke:none;stroke-width:0.702083"
       d="m 229.32437,610.81902 c -8.30623,0.0159 -16.64729,0.39045 -24.80328,2.05873 -4.6403,0.67633 -9.18825,1.86963 -13.55453,3.55321 -4.27445,1.61393 -8.60095,3.1076 -12.87684,4.67666 -2.08516,0.70824 -3.64917,2.89064 -3.15568,5.12427 0.78394,3.73354 3.96582,6.52527 7.32138,8.04955 2.42816,1.18058 5.43795,-0.0742 7.71334,1.49771 2.25553,1.58342 2.29136,4.98005 0.60123,6.96002 -1.11427,1.26725 -1.00457,3.09129 -1.44676,4.63718 -0.71314,4.13735 -1.7125,8.682 0.14543,12.67132 0.78206,1.62256 2.09955,2.96221 3.60956,3.89239 1.11777,3.6792 3.32729,7.19132 6.57267,9.37695 0.80856,0.36435 2.17278,0.86018 2.77379,-0.0401 0.36381,-3.0978 0.91201,-6.24392 2.64658,-8.91264 1.67805,-2.82375 4.80056,-5.02749 8.21742,-4.77211 1.41317,-0.0389 2.6683,0.62802 3.93455,1.14708 1.50972,0.21098 2.2938,-1.40466 2.57781,-2.61473 0.85857,-2.65742 0.97748,-5.63332 2.59792,-7.99445 1.07323,-1.53688 3.07438,-1.77105 4.76869,-2.14888 2.52359,-0.3515 5.199,0.1617 7.25607,1.70307 3.11257,2.21878 5.22651,5.57971 6.53247,9.08643 0.82388,0.86097 2.13756,0.0679 3.13056,0.0151 3.53173,-0.79584 7.39302,-1.60046 10.02482,-4.27272 1.16629,-1.15684 1.55182,-2.80449 1.74367,-4.36289 0.81707,-1.67101 2.0056,-3.17452 2.74237,-4.90223 2.35617,-4.6912 3.67133,-9.84038 6.08148,-14.49784 0.39087,-0.55833 1.15494,-0.80114 1.3467,-1.5478 0.672,-1.3491 1.04457,-2.81862 1.60297,-4.21261 0.23111,1.82452 -0.90033,3.45996 -1.38903,5.15904 -2.42584,6.48224 -5.32233,12.81158 -7.77913,19.26858 -1.14732,2.74661 -2.78552,5.29247 -3.64051,8.15127 -0.26416,0.91483 0.84637,1.3846 1.54901,0.94469 1.00823,-0.2824 1.85796,-1.01966 1.96345,-2.1118 1.85638,-6.66248 5.42597,-12.68937 8.80376,-18.64871 1.11673,-2.2642 1.55016,-4.7983 2.64136,-7.08313 0.84724,-2.02387 1.74495,-4.0303 2.84089,-5.93541 -0.33061,2.46507 -1.67347,4.71318 -1.96477,7.19301 0.25947,0.97863 1.49669,0.61796 2.08034,0.16529 0.85727,-0.35732 1.46979,-0.98873 1.60403,-1.93197 0.53002,-1.49811 0.99571,-3.01649 1.67226,-4.45457 0.10676,1.77804 -0.55583,3.98674 0.86429,5.39475 1.51641,1.05623 3.44022,-0.13338 4.5677,-1.24725 1.50171,-1.43482 2.87327,-3.90383 1.55775,-5.88564 -1.53035,-2.06606 -4.36211,-1.75422 -6.5978,-2.32921 -5.74108,-1.62919 -10.80324,-4.96112 -16.53026,-6.67047 -8.09407,-2.90238 -16.7507,-3.44541 -25.25743,-4.07396 -1.69528,-0.0862 -3.39332,-0.0882 -5.0903,-0.0751 z m -0.0553,7.20804 c 1.99583,-0.024 3.47827,1.64397 4.28948,3.29948 1.72015,2.58578 4.28134,4.87466 4.80571,8.05605 0.31578,2.06121 -1.41378,3.65412 -3.1205,4.45304 -2.11979,1.70434 -3.28493,4.30876 -5.35909,6.06461 -0.68011,0.68144 -1.70218,1.22567 -2.67585,0.94807 -1.90427,-2.75693 -4.22167,-5.24388 -6.36162,-7.82414 -1.3903,-1.65448 -2.72643,-4.04889 -1.62306,-6.18117 0.64719,-1.18005 1.74006,-2.09698 2.69841,-3.00544 1.10261,-2.06454 2.63545,-4.041 4.75314,-5.15297 0.82649,-0.36728 1.69643,-0.61121 2.59338,-0.65753 z"
       id="path2847" />
    <path
       style="opacity:0.99;fill:#ea4612;fill-opacity:1;stroke:none;stroke-width:0.702083"
       d="m 261.96436,650.61874 c -0.84576,3.1762 -1.87307,6.40389 -3.97251,9.01353 -0.73726,0.85379 -0.53239,2.32598 0.63315,2.66481 0.82063,0.3119 1.61663,-0.23186 1.85694,-1.02437 1.36006,-3.26706 3.44711,-6.10148 5.4544,-8.98372 1.69746,-2.56914 3.71942,-5.33802 3.37175,-8.59053 -0.0596,-1.58504 -1.21175,-2.93249 -2.42203,-3.83693 -1.81445,2.34922 -3.45203,6.0156 -4.9217,10.75721 z"
       id="path2849"
       sodipodi:nodetypes="cccccccc" />
    <path
       style="opacity:0.99;fill:#ea4612;fill-opacity:1;stroke:none;stroke-width:0.702083"
       d="m 271.88591,646.91929 c -1.62678,0.38165 -2.63942,1.99257 -3.42949,3.35607 -1.50885,3.15503 -3.37739,6.02087 -5.42018,8.85783 -2.12965,3.10257 -4.6651,6.56162 -4.26552,10.53222 0.13754,0.72225 0.18146,1.76367 0.85425,2.13887 0.87287,0.0505 1.19288,-1.10061 1.77884,-1.56784 4.53965,-5.46738 8.95556,-11.21942 11.49715,-17.91238 0.37458,-1.54799 0.6488,-3.34246 -0.005,-4.86379 -0.20902,-0.34634 -0.59829,-0.58306 -1.01002,-0.54098 z"
       id="path2851" />
    <path
       style="opacity:0.99;fill:#f1d73c;fill-opacity:1;stroke:none;stroke-width:0.702083"
       d="m 214.0102,562.46714 c -2.11576,0.0663 -3.50481,2.0803 -5.6527,2.10365 -6.5374,1.28252 -11.97446,5.4607 -17.31541,9.17337 -4.45099,3.73933 -8.7474,7.75365 -12.45724,12.22728 -1.71094,2.20051 -2.82194,4.75815 -4.05126,7.22594 -2.31925,3.25953 -4.3037,6.98119 -5.02359,10.96544 -0.23238,1.41226 1.34376,2.46764 2.58672,1.76389 3.73483,-1.07887 6.90541,-3.58578 8.99669,-6.83594 2.76163,-4.1249 5.12304,-8.48614 8.32868,-12.31177 0.44503,-0.88395 1.44411,-1.53177 2.37354,-0.93507 2.63736,0.97837 4.67478,3.89761 7.72465,3.47817 1.35708,-0.51614 2.1019,-2.17724 2.17455,-3.54901 -0.55186,-1.63472 -1.57678,-3.24353 -1.2152,-5.06497 0.67673,-4.38914 4.27206,-8.03022 8.42523,-9.40322 1.56967,-0.55456 3.25613,-0.37397 4.8424,-0.13876 0.67111,-0.0187 0.21449,-1.11123 0.90962,-0.6588 0.91669,0.0212 0.0132,0.96651 0.80302,1.16175 2.2097,0.0821 3.80864,-2.23223 3.39685,-4.32116 -0.28004,-2.39415 -2.20562,-5.02301 -4.84655,-4.88079 z"
       id="path2853"
       sodipodi:nodetypes="ccccccccccccccccccc" />
    <path
       style="opacity:0.99;fill:#f1d73c;fill-opacity:1;stroke:none;stroke-width:0.702083"
       d="m 228.16612,552.97475 c -1.86175,-0.0787 -3.23768,1.26212 -4.13591,2.74146 -2.41408,3.38998 -3.59533,8.38233 -0.91673,11.97175 1.68215,3.18677 5.96004,3.74651 9.04644,2.47935 3.96188,-1.68465 5.01541,-6.76087 3.65591,-10.50215 -1.07485,-3.31998 -3.75151,-6.9419 -7.64971,-6.69041 z"
       id="path2855" />
    <path
       style="opacity:0.99;fill:#f1d73c;fill-opacity:1;stroke:none;stroke-width:0.702083"
       d="m 244.41843,564.54272 c -3.48495,0.13373 -6.5845,3.2713 -6.92162,6.68717 -0.1947,2.7218 3.25658,4.00045 5.44349,3.1665 1.3637,-1.23035 2.91962,-2.63736 4.92473,-2.35893 4.33807,0.67626 7.62141,4.26708 9.46571,8.02603 1.1639,1.71312 0.46676,3.73385 0.19898,5.58209 -0.1487,1.97633 1.54538,3.90212 3.61005,3.59152 2.65554,0.008 4.89969,-1.74477 7.04243,-2.92563 4.39141,4.40155 8.36671,9.30111 10.69941,15.10574 0.51802,1.95736 2.09599,3.5667 3.98949,4.28281 1.92645,0.86951 4.73176,-0.59084 4.342,-2.88313 -0.40306,-2.77739 -2.2452,-5.09852 -3.28426,-7.66722 -1.61338,-3.59777 -3.5332,-7.08968 -6.25962,-9.96454 -5.2352,-6.14537 -11.12899,-11.94914 -18.49082,-15.48535 -3.36079,-1.78975 -6.99203,-3.07019 -10.63826,-4.0449 -1.31094,-0.64368 -2.58421,-1.34505 -4.12171,-1.11216 z"
       id="path2857" />
    <path
       style="opacity:0.99;fill:#f1d73c;fill-opacity:1;stroke:none;stroke-width:0.702083"
       d="m 225.15301,595.64801 c -6.50295,-0.0574 -13.01405,0.42975 -19.36998,1.83306 -9.41601,2.00047 -18.96736,3.84627 -27.74868,7.89776 -4.99876,1.92069 -10.49555,3.6108 -14.14551,7.74509 -2.29615,3.58147 -1.06233,7.14508 0.98779,8.18188 4.64015,1.25324 9.04178,-1.41243 12.9795,-3.4863 2.97819,-1.6193 6.07597,-2.96332 9.42695,-3.5409 7.39291,-1.89884 14.55335,-4.90636 22.23139,-5.45461 9.4204,-0.95576 18.9397,-2.11397 28.40705,-1.1696 3.12675,0.47025 6.19943,1.25411 9.3729,1.42707 7.90303,1.07513 15.42257,3.87875 23.00009,6.28957 7.794,2.44911 14.25295,8.19572 22.36209,9.7884 1.92351,-0.0116 3.12464,-1.87192 4.28515,-3.1665 1.89267,-2.40505 0.16381,-5.57309 -1.74817,-7.3743 -4.54287,-4.40333 -10.86953,-6.09811 -16.50881,-8.59807 -5.82991,-2.46154 -11.92157,-4.35869 -18.23432,-4.96047 -1.678,-0.68346 -3.07452,-1.97585 -4.85367,-2.49352 -7.34545,-2.50086 -15.25548,-2.50534 -22.93935,-2.85299 -2.50092,-0.0575 -5.00284,-0.0869 -7.50441,-0.0655 z"
       id="path2859"
       sodipodi:nodetypes="cccccccccccccccccccc" />
    <path
       style="opacity:0.99;fill:#f1d73c;fill-opacity:1;stroke:none;stroke-width:0.702083"
       d="m 276.41139,633.3413 c -1.77168,0.31028 -3.34737,1.2597 -5.1237,1.58679 -1.45921,0.28703 -2.14629,1.96943 -1.41417,3.24441 1.18486,2.60218 3.37519,4.64311 5.55008,6.43216 1.08715,0.0353 0.89779,-1.7135 1.36443,-2.44394 0.66506,-2.55919 1.9925,-5.20353 1.49945,-7.89852 -0.24999,-0.77199 -1.14559,-1.00975 -1.87609,-0.9209 z"
       id="path2861" />
    <path
       style="opacity:0.99;fill:#f1d73c;fill-opacity:1;stroke:none;stroke-width:0.702083"
       d="m 228.10217,621.02244 c -3.10519,0.65659 -4.74007,3.78989 -6.26945,6.26318 -0.61619,1.05763 -1.43551,2.45074 -0.39922,3.53341 1.7211,2.53105 3.37075,5.57435 6.31335,6.82926 1.93564,0.24495 3.01356,-1.91344 4.26619,-3.00426 1.69224,-2.03612 4.35921,-4.25183 3.74271,-7.21068 -0.65306,-2.58802 -3.48607,-3.49681 -5.01711,-5.45458 -0.70899,-0.64786 -1.66103,-1.07253 -2.63647,-0.95633 z"
       id="path2863" />
    <path
       style="opacity:0.99;fill:#f1d73c;fill-opacity:1;stroke:none;stroke-width:0.702083"
       d="m 181.69035,635.62231 c -1.48698,0.45296 -0.98176,2.46007 -0.85277,3.61986 0.80535,3.44225 2.08142,6.96149 4.47702,9.63406 0.64196,0.92165 1.95075,0.27688 1.92583,-0.75797 0.12448,-3.21233 2.61999,-6.02522 2.19588,-9.30113 -0.56666,-1.72419 -2.74763,-1.68534 -4.22831,-1.55136 -1.22667,-0.39046 -2.13253,-1.71404 -3.51765,-1.64346 z"
       id="path2865" />
    <path
       style="opacity:0.99;fill:#f1d73c;fill-opacity:1;stroke:none;stroke-width:0.702083"
       d="m 227.51233,649.69088 c -1.67944,-0.23267 -2.82252,1.15015 -3.38263,2.55019 -1.95451,3.3686 -3.32704,7.2175 -2.82835,11.16419 0.18588,1.81747 1.63102,3.9183 3.71664,3.48527 2.32245,-0.0992 2.95569,-2.7356 2.93495,-4.63286 0.1326,-1.99758 -0.37859,-4.80709 1.80501,-5.89379 1.15499,-0.4068 1.10481,1.34558 1.18677,2.03308 0.34487,2.42275 -0.32349,5.11858 0.83856,7.36015 0.8861,1.29256 3.09966,2.19451 4.38464,1.03424 1.36251,-3.00922 1.12319,-6.55613 0.43348,-9.71907 -0.86158,-3.4391 -3.32298,-7.12284 -7.19877,-7.36015 -0.62853,-0.0507 -1.26059,-0.0439 -1.8903,-0.0212 z"
       id="path2867" />
    <path
       style="opacity:0.99;fill:#f1d73c;fill-opacity:1;stroke:none;stroke-width:0.702083"
       d="m 248.51882,659.51621 c -3.83852,0.12689 -6.73457,3.16211 -8.76928,6.11338 -1.215,1.92342 -2.04584,5.10065 -0.007,6.77219 1.15919,0.65769 2.68473,1.29435 3.9938,0.82173 2.84503,-2.05742 4.84524,-5.28583 8.10839,-6.74385 0.82309,-0.18775 0.37039,0.89273 0.0924,1.20426 -2.40613,4.24305 -5.81868,8.05357 -10.21188,10.25745 -0.98803,0.88731 0.42414,2.18507 1.45681,1.87722 4.48649,-0.3099 8.92118,-2.70975 11.06464,-6.75801 2.18004,-3.56819 2.46696,-8.74419 -0.81012,-11.75214 -1.32461,-1.39871 -2.97633,-2.05186 -4.91763,-1.79223 z m -4.5623,18.5385 c 0.63825,0.025 -0.55183,0.29792 0,0 z"
       id="path2869" />
    <path
       style="opacity:0.99;fill:#f1d73c;fill-opacity:1;stroke:none;stroke-width:0.702083"
       d="m 211.98488,661.92473 c -2.62803,0.19613 -4.2851,2.63629 -5.75617,4.54076 -2.72038,4.30308 -0.69466,10.13702 3.24051,12.97766 2.55059,2.01341 6.01451,2.72694 9.18856,2.3306 1.70929,-1.26635 1.07122,-3.85387 -0.36243,-5.09331 -2.21226,-2.53335 -5.48158,-3.96269 -7.52567,-6.63759 -0.3051,-0.58493 0.7606,-1.63289 1.09439,-0.69422 2.03309,1.60273 4.04023,3.75743 6.72975,4.10865 2.25222,-0.0553 3.0005,-2.79877 2.99889,-4.64703 -1.20644,-2.89032 -3.80465,-5.16212 -6.68,-6.36132 -0.92771,-0.36304 -1.92743,-0.5787 -2.92783,-0.5242 z"
       id="path2871" />
    <path
       style="opacity:0.99;fill:#f1d73c;fill-opacity:1;stroke:none;stroke-width:0.702083"
       d="m 187.7592,728.6194 c -2.81631,0.4047 -3.89477,3.69 -3.63078,6.16249 0.0489,2.25913 1.37331,4.98132 3.95057,5.02295 19.50258,1.53001 39.08963,1.10324 58.63476,1.10091 8.44105,-0.1313 16.89903,-7e-4 25.32722,-0.48461 1.60265,-0.89562 1.75777,-3.09308 1.88319,-4.7462 0.35838,-3.13644 -2.62183,-5.58833 -5.57852,-5.67419 -10.03058,0.36533 -20.09353,0.2212 -30.13109,-0.0779 -10.00879,-0.34344 -20.00247,-1.18205 -30.01734,-1.2833 -6.32501,0.41327 -12.69992,0.5754 -19.02384,0.12863 -0.46031,-0.12467 -0.93672,-0.18657 -1.41417,-0.14876 z"
       id="path2875" />
    <path
       style="opacity:0.99;fill:#f1d73c;fill-opacity:1;stroke:none;stroke-width:0.702083"
       d="m 220.36331,688.59551 c -1.36978,0.62568 -1.78667,2.35468 -2.81712,3.37668 -2.98377,4.24279 -6.69158,8.06472 -8.90131,12.79581 -0.35665,0.65424 -0.77941,2.08304 0.40506,2.09683 3.62872,0.27937 7.32475,-0.64671 10.9083,-0.0212 2.06456,0.66514 2.4256,3.05411 2.61515,4.90204 0.78426,1.62618 2.5776,2.51112 4.13593,3.28692 3.05849,1.55338 7.10048,0.49317 8.90247,-2.43643 1.68248,-2.0403 2.8387,-4.57087 4.79864,-6.34757 1.65046,-0.7836 3.36586,0.34051 4.56414,1.42135 2.07894,1.40003 4.79448,1.27076 7.21115,1.25635 1.31432,0.0313 3.50611,-0.57466 2.96336,-2.30934 -1.03132,-2.3248 -3.46946,-3.60246 -4.98868,-5.58209 -3.43233,-3.46541 -6.27763,-8.13752 -11.17124,-9.66241 -2.33286,-0.72328 -4.61012,0.45838 -6.69422,1.2326 -2.98529,0.13945 -6.06256,0.29545 -8.79865,1.63808 -3.05701,1.39115 -5.54817,4.08357 -6.608,7.25218 -0.54666,0.96378 -2.4138,1.21032 -2.97047,0.19126 0.19579,-1.52934 2.03742,-2.18961 2.91241,-3.31258 2.0421,-2.10862 4.71218,-4.03636 5.57261,-6.95904 0.23627,-1.1742 -0.80159,-2.79924 -2.03953,-2.81938 z m 16.92741,5.91504 c 3.97086,2.19554 7.31242,5.49803 9.84946,9.23028 0.42439,0.74861 -1.10259,-0.79241 -1.4426,-0.94924 -2.81965,-2.34101 -6.32921,-3.93028 -8.63426,-6.81468 -0.32275,-0.43248 -0.24634,-1.22372 0.2274,-1.46636 z m -7.43328,3.49235 c 1.85459,1.05523 1.17511,3.57257 1.31269,5.31998 -0.19002,1.95882 0.29172,4.15898 -0.62336,5.97171 -0.32701,0.63061 -0.67079,0.27536 -0.66801,-0.25502 -0.46659,-3.41871 -0.74518,-6.94515 -0.28425,-10.37787 0.056,-0.22523 0.11076,-0.48897 0.26293,-0.6588 z"
       id="path2877" />
    <path
       style="opacity:0.99;fill:#f1d73c;fill-opacity:1;stroke:none;stroke-width:0.702083"
       d="m 206.60535,708.6287 c -2.75902,0.0469 -6.29595,1.34127 -6.70133,4.45576 -0.0853,1.44604 0.25081,3.41213 1.6771,4.10865 1.79516,0.0909 3.46504,1.23321 5.25873,1.09092 1.88553,-0.68287 3.76576,-1.55491 5.84146,-1.26093 3.09897,0.042 6.1807,0.99251 9.26672,0.74381 1.13401,-0.79345 -0.0894,-2.28057 -0.34818,-3.23197 -1.09625,-2.22901 -2.31106,-5.2499 -5.08109,-5.7008 -1.3216,-0.12889 -2.45923,0.69476 -3.41108,1.50886 -1.98308,-1.1166 -4.19769,-1.86128 -6.50233,-1.7143 z"
       id="path2879" />
    <path
       style="opacity:0.99;fill:#f1d73c;fill-opacity:1;stroke:none;stroke-width:0.702083"
       d="m 241.79617,709.12458 c -2.21468,0.31339 -3.15342,2.99862 -3.09128,4.9658 -0.0666,2.16144 1.74886,4.52167 4.11461,4.00947 3.6679,-0.5684 7.39003,0.30863 11.08594,0.13317 2.3182,-0.15087 4.8225,0.24368 7.02113,-0.59363 0.79657,-1.07939 -0.16462,-2.58104 -0.71063,-3.59151 -1.32609,-2.27363 -3.94221,-3.53279 -6.55209,-3.23026 -3.12298,-0.1247 -6.45784,0.41073 -9.43018,-0.63754 -0.68955,-0.56811 -1.48711,-1.12913 -2.4375,-1.0555 z"
       id="path2881" />
    <path
       style="opacity:0.99;fill:#ffffff;fill-opacity:1;stroke:none;stroke-width:0.702083"
       d="m 251.62983,587.91972 c -1.09059,0.8467 -1.77251,2.21324 -3.59788,1.72311 -4.60716,0.70062 -10.00142,-1.03437 -14.15033,1.28232 -1.68984,1.76856 2.34391,1.67886 3.31323,1.84765 12.17633,0.97873 24.22905,3.55385 35.70068,7.50926 1.98875,-0.60445 -0.52651,-3.57507 -1.02509,-4.52818 -1.67249,-2.7879 -5.72607,-5.71894 -8.48217,-2.50453 -3.67375,2.84619 -6.86876,-1.95444 -9.40675,-4.16754 -0.69817,-0.48926 -1.41745,-1.28666 -2.35169,-1.16209 z"
       id="path2897" />
    <path
       style="opacity:0.99;fill:#ffffff;fill-opacity:1;stroke:none;stroke-width:0.702083"
       d="m 228.71595,668.66568 c -4.39101,1.47437 -5.42892,7.1734 -6.02997,11.22028 -0.57425,3.32852 0.71941,7.46828 3.89938,8.83597 0.61053,-1.49179 -1.17906,-3.86006 1.10549,-4.68847 2.59755,-1.30089 3.80186,-4.02331 5.32647,-6.15111 0.31362,-1.62274 -2.31175,-4.75621 -0.89719,-5.00201 1.03589,0.69178 4.23378,0.50048 2.50518,-1.22926 -1.54619,-1.56569 -3.53971,-3.31128 -5.90936,-2.9854 z"
       id="path2899" />
    <path
       style="opacity:0.99;fill:#ffffff;fill-opacity:1;stroke:none;stroke-width:0.702083"
       d="m 246.12246,721.54127 c -5.65107,0.27769 -11.55343,-0.28291 -17.06481,0.7213 -2.0837,2.0528 1.54422,2.94424 3.09537,2.78504 10.66371,0.78872 21.48951,2.05301 32.13975,1.30235 1.77299,-1.85178 -0.49723,-4.88351 -2.89439,-4.48811 -5.07116,-0.49424 -10.1879,-0.30293 -15.27592,-0.32058 z"
       id="path2901" />
  </g>
</svg>
