<?xml version="1.0" encoding="UTF-8" standalone="no"?>
<svg
   width="80"
   height="265"
   version="1.1"
   id="svg6"
   sodipodi:docname="Seme_spade_carte_spagnole.svg"
   inkscape:version="1.3.2 (1:1.3.2+202311252150+091e20ef0f)"
   xmlns:inkscape="http://www.inkscape.org/namespaces/inkscape"
   xmlns:sodipodi="http://sodipodi.sourceforge.net/DTD/sodipodi-0.dtd"
   xmlns="http://www.w3.org/2000/svg"
   xmlns:svg="http://www.w3.org/2000/svg">
  <defs
     id="defs6" />
  <sodipodi:namedview
     id="namedview6"
     pagecolor="#ffffff"
     bordercolor="#666666"
     borderopacity="1.0"
     inkscape:showpageshadow="2"
     inkscape:pageopacity="0.0"
     inkscape:pagecheckerboard="0"
     inkscape:deskcolor="#d1d1d1"
     inkscape:zoom="5.7919917"
     inkscape:cx="50.069132"
     inkscape:cy="165.74609"
     inkscape:window-width="3840"
     inkscape:window-height="2123"
     inkscape:window-x="0"
     inkscape:window-y="0"
     inkscape:window-maximized="1"
     inkscape:current-layer="svg6" />
  <path
     fill="#2b2111"
     d="m 34.097954,264.4819 c -8.918348,-4.46755 -3.499298,-15.67489 -7.082349,-23.2304 3.884692,-7.05248 0.423198,-15.36155 2.138028,-23.02426 1.69974,-5.65244 -5.615742,-7.95565 -6.917714,-13.22635 -0.229792,-12.51204 -15.1640151,-0.17503 -20.0433591,-9.42446 -7.3604851,-8.05878 5.5243306,-20.03142 13.4017021,-13.18935 3.444289,1.41621 11.575668,-0.40382 13.295233,-3.07117 C 24.736516,174.03028 16.947443,176.54456 18.721453,166.96316 25.378386,115.64661 29.473068,65.013774 35.628897,14.755957 36.179185,11.389408 36.070354,-2.3707698 39.936323,0.35496712 40.534276,10.59287 42.55955,20.596925 43.746578,30.734419 c 1.850937,10.35369 2.900578,20.834979 4.181053,31.312181 1.824837,9.456047 2.248361,18.99572 3.718417,28.606698 1.019829,10.031362 2.630017,19.120992 4.551417,28.607102 1.669754,9.15922 6.055323,37.78842 7.390017,47.0344 -1.179885,2.63405 3.274103,6.68018 -7.823457,10.46813 4.218937,0.20874 11.274675,-0.35176 14.477028,2.44215 9.369611,2.89728 14.47221,16.86286 3.740833,21.75028 -6.516577,3.09662 -12.415368,-10.55564 -12.467221,1.36327 -0.744379,9.22835 -13.865542,12.07598 -11.375649,22.50532 0.793307,6.70868 -2.594177,11.61957 0.734087,19.1035 -4.596255,5.55183 1.394362,13.6584 -3.945891,18.08473 -3.468708,3.53344 -8.293548,3.74075 -12.829258,2.46972 z m 7.115354,-2.09301 c 12.936037,-4.61359 -1.068147,-17.36243 -8.824381,-9.98374 -4.408233,6.11769 2.415389,12.16914 8.824381,9.98374 z M 34.75234,249.54594 c 4.980744,-5.78059 14.39098,5.57287 13.637216,-6.24357 0.666638,-8.60019 -12.974641,-9.06465 -17.174812,-4.92988 -3.774122,2.22983 -1.380066,12.62811 3.537596,11.17345 z m 11.517501,-15.56955 c 2.898959,-8.41597 2.338923,-19.91982 -9.229651,-16.65174 -9.107741,-3.93358 -8.753278,17.80687 -1.239799,16.44186 3.635719,-0.65764 6.829245,0.84065 10.46945,0.20988 z m 0.529555,-18.95426 c 7.004027,-1.02774 11.81897,-8.57756 12.668289,-15.4598 1.657729,-7.25125 0.05258,-16.92785 -5.882713,-21.17566 -6.666945,1.15007 1.166193,8.50912 -0.168983,12.75437 1.179014,7.91514 -3.521444,17.14753 -12.313833,16.7149 -9.625905,2.08887 -10.573708,-11.07439 -17.269192,-11.52693 -3.605366,7.29791 5.10238,17.26017 12.297948,18.83118 3.476475,0.80172 7.150874,0.0362 10.668484,-0.13806 z m -2.050678,-10.21386 c 11.550761,-6.25087 -18.724794,-5.93605 -10.153516,-0.40534 2.59127,1.79953 7.153787,1.16307 10.153516,0.40534 z m -4.932015,-7.3084 c 8.211312,1.31432 15.183177,-1.48586 10.292316,-10.82829 -2.197357,-8.14138 -15.117255,-5.02102 -20.199278,-2.29141 0.70954,7.45683 -1.798985,16.85856 9.906962,13.1197 z m -3.177551,-3.77855 c -11.656777,-9.22168 17.686253,-12.78616 8.275604,-0.91584 -2.39346,1.73384 -5.550257,0.88732 -8.275604,0.91584 z m 5.019232,-2.19787 c 10.411389,-5.31525 -13.388373,-5.04808 -2.831403,0.39153 l 1.268715,-0.11788 z m 32.075753,5.80025 c 9.669662,-6.86361 -3.424644,-18.69773 -11.893057,-17.02337 -5.856672,3.82902 2.884378,14.35989 7.684179,17.21826 1.263724,0.8683 2.952804,0.43742 4.208878,-0.19489 z m -56.40809,-0.86299 c 8.260663,2.89532 14.515021,-12.01727 6.009632,-12.74994 -6.300623,8.00356 -16.5078995,-7.59628 -20.4367881,4.77182 -1.3456524,9.03505 8.0701291,8.99872 14.4271561,7.97812 z M 48.609214,178.6178 c 5.110946,-7.65975 15.115764,-3.20103 11.637111,-14.26659 -1.245786,-9.45717 -3.542924,-22.15788 -3.989324,-31.68022 C 54.45932,122.65526 51.966384,112.6192 51.102532,102.47216 49.740721,93.330676 48.535248,84.234724 47.580158,74.985772 45.743583,64.730542 45.486268,53.80542 43.331099,43.594779 42.47788,36.329976 39.971045,17.89604 38.225317,9.3564948 33.184109,59.399795 27.418791,120.95688 21.351075,170.89738 c 4.550746,2.16329 10.030027,9.42842 15.706253,8.09181 3.845852,-0.07 7.745046,0.19802 11.551886,-0.37139 z"
     id="path1"
     style="stroke-width:0.800001" />
  <path
     fill="#f1500f"
     d="m 39.890407,187.67405 c -1.312536,0.11071 -3.806456,0.30256 -3.829104,2.02152 1.096168,1.66589 3.131704,2.93041 5.123296,1.95733 1.246096,-0.47973 3.696904,-1.58745 2.952048,-3.25154 -1.203488,-0.77983 -2.844568,-0.69839 -4.24624,-0.72731 z m -0.395744,12.53552 c -2.161992,0.24509 -5.211648,0.0418 -6.46028,2.13917 -0.08066,1.87557 2.409584,2.48629 3.818408,3.01622 2.799376,0.46635 5.906776,0.32753 8.492488,-0.85567 1.03852,-0.57668 2.952952,-2.33571 1.37976,-3.36919 -2.19568,-1.07269 -4.84676,-0.88364 -7.230376,-0.93053 z m 0.726368,16.4194 c -1.586832,0.11973 -3.172792,0.64772 -4.742056,0.121 -2.893576,-0.38528 -4.715176,2.61637 -5.074832,5.12022 -0.538768,3.72963 -0.471016,8.20377 2.299176,11.07237 1.885744,1.75993 4.689024,0.59517 6.972912,0.97168 2.159296,0.0402 4.517992,0.81928 6.587704,0.019 1.6078,-3.62542 1.770544,-7.83127 1.210096,-11.73037 -0.581392,-3.41447 -3.775616,-5.8985 -7.253,-5.574 z"
     opacity="0.99"
     id="path2"
     style="stroke-width:0.800001" />
  <path
     fill="#f4ee09"
     d="m 8.1535267,183.49774 c -2.220656,-0.18112 -4.060568,1.43144 -4.749616,3.44877 -1.812576,3.3275 -0.339656,8.16484 3.456336,9.28748 4.0872633,1.49577 8.5287763,0.19196 12.7664883,0.62017 4.418376,-0.0105 7.575456,-4.518 7.858056,-8.62192 0.325408,-2.32785 -0.697744,-5.03519 -3.588616,-4.40173 -1.216952,0.89724 -3.105864,2.19564 -4.798856,1.92103 -3.877376,0.44193 -7.157537,-2.26482 -10.9437923,-2.2538 z m 32.7179283,-2.05717 c -3.82908,0.11414 -7.815264,0.98856 -11.049672,2.9723 0.241664,3.87563 -0.287632,7.99642 1.194968,11.66986 1.265656,2.63629 4.760632,2.71814 7.207624,1.99666 3.778752,-0.71879 8.12868,0.6525 11.45052,-1.76976 2.127752,-1.29297 2.47396,-4.04564 1.86808,-6.23956 -0.88496,-3.63599 -2.94144,-7.93765 -7.094176,-8.4631 -1.181856,-0.17885 -2.384736,-0.18475 -3.577344,-0.1664 z m 0.453784,4.03114 c 2.025008,0.0244 5.116096,0.55275 5.248784,3.06305 -0.02184,2.786 -2.477632,5.45011 -5.384864,5.08754 -1.536136,-0.0871 -3.264504,0.23454 -4.675984,-0.16391 -1.256048,-1.25039 -3.170856,-3.13559 -2.153544,-5.0522 1.600608,-2.14543 4.397656,-2.89439 6.965608,-2.93448 z m 21.713632,-5.38493 c -2.543808,-0.12699 -3.722192,3.03356 -3.13868,5.15047 1.039904,4.40972 4.290024,7.92426 7.535072,10.90467 1.522584,1.49768 3.85724,2.52273 5.889408,1.4383 3.600872,-1.59383 4.903232,-6.42766 2.93448,-9.76395 -2.290872,-4.07874 -6.616576,-6.93687 -11.223624,-7.6463 -0.662472,-0.0831 -1.329576,-0.10709 -1.996656,-0.0832 z"
     opacity="0.99"
     id="path3"
     style="stroke-width:0.800001" />
  <path
     fill="#f4ee09"
     d="m 52.957271,178.33214 c -1.694648,0.36228 -2.735312,2.32589 -1.973968,3.94794 1.077352,3.33555 2.791824,6.59844 2.35212,10.21774 0.17316,3.9085 -0.717896,7.98598 -3.267248,11.01943 -2.130616,2.85566 -5.662416,4.36438 -9.211208,4.19206 -2.243128,0.22442 -4.655744,0.0547 -6.36876,-1.53741 -3.438016,-2.83157 -5.138128,-7.48294 -9.11352,-9.6732 -1.087328,-0.64495 -2.155712,0.31858 -2.231112,1.42942 -1.143664,5.19907 2.17908,10.19158 5.868952,13.49257 3.251176,3.00918 7.687544,4.66564 12.130672,4.19771 3.771984,-0.36373 7.9674,-0.17617 11.026032,-2.77527 4.921456,-3.61068 7.196696,-9.69394 7.810624,-15.59421 0.736504,-6.44225 -0.542616,-13.80554 -5.555344,-18.26635 -0.402096,-0.35821 -0.900456,-0.70494 -1.46724,-0.65043 z m -14.763152,57.44928 c -3.435136,0.0837 -7.527944,1.53912 -8.758056,5.02946 -0.572256,3.05598 0.246072,6.82075 2.93448,8.65218 1.096864,0.55574 2.521264,0.4624 3.33532,-0.51429 2.47844,-1.87101 5.567344,-0.48886 8.277864,-0.10142 1.459064,0.41129 3.619536,0.38584 4.080224,-1.4112 0.769304,-2.60142 0.896952,-5.71983 -0.514288,-8.1152 -2.031336,-2.96168 -6.006312,-3.64185 -9.355544,-3.53953 z m -0.59748,14.40014 c -3.438472,-0.23849 -6.752056,2.59786 -6.716024,6.10342 -0.1392,3.2088 2.799776,5.95783 5.808448,6.46644 2.602192,0.29865 5.320712,-0.0849 7.43452,-1.72438 2.125936,-1.28222 3.301328,-4.25861 1.777328,-6.4362 -1.660184,-2.83992 -4.953144,-4.81227 -8.304272,-4.40928 z"
     opacity="0.99"
     id="path4"
     style="stroke-width:0.800001" />
  <path
     fill="#d2f2f3"
     fill-opacity="0.992157"
     stroke="#d7e2e5"
     stroke-opacity="0.208553"
     stroke-width="0.382665"
     d="m 31.625023,174.4821 c 0.410504,1.99309 4.156864,4.9456 12.376448,4.50822 2.05288,-0.0508 4.772904,0.22855 5.996488,-1.8913 2.923736,-3.08252 7.827184,-3.26158 10.46052,-6.61002 1.437688,-2.72263 -0.369544,-5.98363 -0.480056,-8.86284 C 57.627319,147.72623 56.854359,133.59753 53.891471,119.79821 51.347807,106.61651 50.015463,93.238132 48.255967,79.93664 46.428871,66.276684 45.015519,52.561983 42.831759,38.951635 41.717575,30.102267 40.519919,17.049687 38.306239,9.2849841 32.657607,44.942888 30.455903,123.62521 31.625023,174.4821 Z"
     opacity="0.99"
     id="path5" />
  <path
     fill="#8ccce8"
     stroke="#d7e2e5"
     stroke-opacity="0.208553"
     stroke-width="0.272695"
     d="m 37.739967,10.029304 c -1.19836,9.661121 -2.00428,19.425418 -3.02188,29.128795 -4.33368,43.729408 -8.501064,87.488501 -13.623168,131.126861 0.24864,1.38341 2.035088,1.6431 2.872736,2.59531 3.363088,2.3103 5.194872,5.55372 9.278008,6.44647 3.015992,0.051 7.268048,-0.0843 10.294736,-0.16131 1.352288,-0.15128 0.780752,-1.98248 1.247816,-2.89614 0.706816,-4.16178 -0.06664,-8.4221 -0.09967,-12.6102 -0.70756,-15.82496 -1.31088,-31.69249 -2.16708,-47.50815 -1.096954,-26.644091 -1.93185,-53.298964 -3.09201,-79.940732 -0.370632,-8.644152 -0.58436,-17.301896 -0.910544,-25.94276 -0.03088,-0.4129914 -0.526784,-0.5154235 -0.778944,-0.238144 z"
     opacity="0.99"
     id="path6" />
</svg>
